<mxfile host="Electron" modified="2024-07-25T01:58:43.848Z" agent="Mozilla/5.0 (Windows NT 10.0; Win64; x64) AppleWebKit/537.36 (KHTML, like Gecko) draw.io/24.2.5 Chrome/120.0.6099.109 Electron/28.1.0 Safari/537.36" etag="pXmYUxcAKAtQ_jmAebL4" version="24.2.5" type="device">
  <diagram name="Page-1" id="8Yy3q0QdzcJCZFTbSxAr">
    <mxGraphModel dx="1098" dy="1198" grid="1" gridSize="10" guides="1" tooltips="1" connect="1" arrows="1" fold="1" page="1" pageScale="1" pageWidth="850" pageHeight="1100" math="0" shadow="0">
      <root>
        <mxCell id="0" />
        <mxCell id="1" parent="0" />
        <mxCell id="D6gwOoomZgAxbs6WK5Me-21" value="Project Config file" style="rounded=0;whiteSpace=wrap;html=1;verticalAlign=top;fontStyle=1;fontSize=14;strokeWidth=2;dashed=1;" vertex="1" parent="1">
          <mxGeometry x="130" y="270" width="210" height="310" as="geometry" />
        </mxCell>
        <mxCell id="D6gwOoomZgAxbs6WK5Me-16" value="Maven Local Repository" style="rounded=0;whiteSpace=wrap;html=1;verticalAlign=top;fontStyle=1;fontSize=14;strokeWidth=2;dashed=1;" vertex="1" parent="1">
          <mxGeometry x="860" y="260" width="250" height="80" as="geometry" />
        </mxCell>
        <mxCell id="D6gwOoomZgAxbs6WK5Me-1" value="Maven Central Repository (remote)" style="rounded=0;whiteSpace=wrap;html=1;verticalAlign=top;fontStyle=1;fontSize=14;strokeWidth=2;dashed=1;" vertex="1" parent="1">
          <mxGeometry x="860" y="430" width="250" height="240" as="geometry" />
        </mxCell>
        <mxCell id="D6gwOoomZgAxbs6WK5Me-2" style="edgeStyle=orthogonalEdgeStyle;rounded=0;orthogonalLoop=1;jettySize=auto;html=1;entryX=0;entryY=0.5;entryDx=0;entryDy=0;startArrow=classic;startFill=1;exitX=1;exitY=0.5;exitDx=0;exitDy=0;" edge="1" parent="1" source="D6gwOoomZgAxbs6WK5Me-21" target="D6gwOoomZgAxbs6WK5Me-11">
          <mxGeometry relative="1" as="geometry">
            <mxPoint x="490" y="425" as="targetPoint" />
          </mxGeometry>
        </mxCell>
        <mxCell id="D6gwOoomZgAxbs6WK5Me-3" value="" style="rounded=0;whiteSpace=wrap;html=1;fillColor=#b0e3e6;strokeColor=#0e8088;" vertex="1" parent="1">
          <mxGeometry x="140" y="300" width="190" height="270" as="geometry" />
        </mxCell>
        <mxCell id="D6gwOoomZgAxbs6WK5Me-4" value="&lt;h1 style=&quot;margin-top: 0px;&quot;&gt;My Application&lt;/h1&gt;&lt;p&gt;Spring&lt;/p&gt;&lt;p&gt;Hibernate&lt;/p&gt;&lt;p&gt;Commons Logging&lt;/p&gt;&lt;p&gt;Json&lt;/p&gt;&lt;p&gt;...&lt;/p&gt;" style="text;html=1;whiteSpace=wrap;overflow=hidden;rounded=0;" vertex="1" parent="1">
          <mxGeometry x="145" y="305" width="180" height="180" as="geometry" />
        </mxCell>
        <mxCell id="D6gwOoomZgAxbs6WK5Me-5" value="Spring JAR files" style="rounded=0;whiteSpace=wrap;html=1;fillColor=#d5e8d4;strokeColor=#82b366;" vertex="1" parent="1">
          <mxGeometry x="900" y="470" width="170" height="30" as="geometry" />
        </mxCell>
        <mxCell id="D6gwOoomZgAxbs6WK5Me-6" value="Hibernate JAR files" style="rounded=0;whiteSpace=wrap;html=1;fillColor=#dae8fc;strokeColor=#6c8ebf;" vertex="1" parent="1">
          <mxGeometry x="900" y="520" width="170" height="30" as="geometry" />
        </mxCell>
        <mxCell id="D6gwOoomZgAxbs6WK5Me-7" value="Apache Commons JAR files" style="rounded=0;whiteSpace=wrap;html=1;fillColor=#f8cecc;strokeColor=#b85450;" vertex="1" parent="1">
          <mxGeometry x="900" y="570" width="170" height="30" as="geometry" />
        </mxCell>
        <mxCell id="D6gwOoomZgAxbs6WK5Me-8" value="JSON JAR files" style="rounded=0;whiteSpace=wrap;html=1;fillColor=#fff2cc;strokeColor=#d6b656;" vertex="1" parent="1">
          <mxGeometry x="900" y="620" width="170" height="30" as="geometry" />
        </mxCell>
        <mxCell id="D6gwOoomZgAxbs6WK5Me-9" value="Developer" style="rounded=0;whiteSpace=wrap;html=1;fillColor=#76608a;fontColor=#ffffff;strokeColor=#432D57;" vertex="1" parent="1">
          <mxGeometry x="175" y="500" width="120" height="60" as="geometry" />
        </mxCell>
        <mxCell id="D6gwOoomZgAxbs6WK5Me-10" style="edgeStyle=orthogonalEdgeStyle;rounded=0;orthogonalLoop=1;jettySize=auto;html=1;startArrow=classic;startFill=1;" edge="1" parent="1" source="D6gwOoomZgAxbs6WK5Me-11" target="D6gwOoomZgAxbs6WK5Me-1">
          <mxGeometry relative="1" as="geometry">
            <Array as="points">
              <mxPoint x="690" y="425" />
              <mxPoint x="690" y="550" />
            </Array>
          </mxGeometry>
        </mxCell>
        <mxCell id="D6gwOoomZgAxbs6WK5Me-17" style="edgeStyle=orthogonalEdgeStyle;rounded=0;orthogonalLoop=1;jettySize=auto;html=1;entryX=0;entryY=0.5;entryDx=0;entryDy=0;" edge="1" parent="1" source="D6gwOoomZgAxbs6WK5Me-11" target="D6gwOoomZgAxbs6WK5Me-16">
          <mxGeometry relative="1" as="geometry">
            <Array as="points">
              <mxPoint x="690" y="425" />
              <mxPoint x="690" y="300" />
            </Array>
          </mxGeometry>
        </mxCell>
        <mxCell id="D6gwOoomZgAxbs6WK5Me-11" value="Maven" style="rounded=0;whiteSpace=wrap;html=1;fillColor=#d80073;strokeColor=#A50040;fontColor=#ffffff;" vertex="1" parent="1">
          <mxGeometry x="490" y="395" width="120" height="60" as="geometry" />
        </mxCell>
        <mxCell id="D6gwOoomZgAxbs6WK5Me-13" value="1 - Read config file." style="text;html=1;align=center;verticalAlign=middle;resizable=0;points=[];autosize=1;strokeColor=none;fillColor=none;fontStyle=1" vertex="1" parent="1">
          <mxGeometry x="350" y="395" width="130" height="30" as="geometry" />
        </mxCell>
        <mxCell id="D6gwOoomZgAxbs6WK5Me-14" value="5 - Build and Run." style="text;html=1;align=center;verticalAlign=middle;resizable=0;points=[];autosize=1;strokeColor=none;fillColor=none;fontStyle=1" vertex="1" parent="1">
          <mxGeometry x="355" y="425" width="120" height="30" as="geometry" />
        </mxCell>
        <mxCell id="D6gwOoomZgAxbs6WK5Me-15" value="(Your computer)" style="rounded=0;whiteSpace=wrap;html=1;verticalAlign=middle;fontStyle=1;fontSize=14;strokeWidth=1;fillColor=#e1d5e7;strokeColor=none;" vertex="1" parent="1">
          <mxGeometry x="900" y="290" width="170" height="40" as="geometry" />
        </mxCell>
        <mxCell id="D6gwOoomZgAxbs6WK5Me-18" value="2 - Check local repo." style="text;html=1;align=center;verticalAlign=middle;resizable=0;points=[];autosize=1;strokeColor=none;fillColor=none;fontStyle=1" vertex="1" parent="1">
          <mxGeometry x="705" y="271" width="130" height="30" as="geometry" />
        </mxCell>
        <mxCell id="D6gwOoomZgAxbs6WK5Me-19" value="3 - Get from remote repo." style="text;html=1;align=center;verticalAlign=middle;resizable=0;points=[];autosize=1;strokeColor=none;fillColor=none;fontStyle=1" vertex="1" parent="1">
          <mxGeometry x="690" y="550" width="160" height="30" as="geometry" />
        </mxCell>
        <mxCell id="D6gwOoomZgAxbs6WK5Me-20" value="4 - Save in local repo." style="text;html=1;align=center;verticalAlign=middle;resizable=0;points=[];autosize=1;strokeColor=none;fillColor=none;fontStyle=1" vertex="1" parent="1">
          <mxGeometry x="700" y="301" width="140" height="30" as="geometry" />
        </mxCell>
      </root>
    </mxGraphModel>
  </diagram>
</mxfile>
